<?xml version="1.0" encoding="UTF-8"?>
<svg version="1.1" xmlns="http://www.w3.org/2000/svg" width="1024" height="1024">
<path d="M0 0 C337.92 0 675.84 0 1024 0 C1024 337.92 1024 675.84 1024 1024 C686.08 1024 348.16 1024 0 1024 C0 686.08 0 348.16 0 0 Z " fill="#F1F3F6" transform="translate(0,0)"/>
<path d="M0 0 C-0.78375 0.763125 -1.5675 1.52625 -2.375 2.3125 C-5.65738515 5.67303718 -6.9169952 7.1422837 -7.375 11.875 C-7.28451479 14.95715249 -6.97841278 16.0373625 -5.375 18.8125 C-1.06704294 22.78035518 3.125528 24.05299698 8.75 25.25 C18.47094606 27.59892749 25.13261297 32.89739177 30.53125 41.25 C41.56966706 61.91767449 37.86802104 86.79339366 31.45703125 108.2578125 C27.38311636 121.33722346 22.35496148 133.94287947 15.19921875 145.65625 C14.73040283 146.42485352 14.26158691 147.19345703 13.77856445 147.98535156 C12.86278027 149.46296751 11.92840416 150.92926753 10.97338867 152.38183594 C8.54348858 156.14776607 8.54348858 156.14776607 8.33984375 160.48046875 C11.27045297 164.92809921 14.57297628 169.06573278 17.91992188 173.20507812 C18.45552734 173.89150391 18.99113281 174.57792969 19.54296875 175.28515625 C20.03821045 175.90269775 20.53345215 176.52023926 21.04370117 177.15649414 C22 179 22 179 21.75585938 181.08862305 C20.71107794 183.73061073 19.13209563 185.57341703 17.3125 187.75 C15.86543432 189.49209849 14.42920464 191.24321875 13 193 C12.24942574 193.74620857 12.24942574 193.74620857 11.48368835 194.50749207 C6.15050447 200.36638552 6.20472192 205.99979021 6.36381531 213.66961861 C6.40707205 215.79428356 6.41210948 217.91617428 6.40783691 220.04124451 C6.40534923 224.54880892 6.44917733 229.05526232 6.5 233.5625 C6.55893727 238.7938447 6.59834217 244.02383122 6.58781433 249.25553703 C6.59363765 251.3387142 6.63520032 253.41915858 6.67834473 255.50184631 C6.67668007 266.0394414 6.67668007 266.0394414 3.01586914 270.05078125 C2.47298248 270.56129532 1.93009583 271.07180939 1.37075806 271.59779358 C-0.78334875 273.80132059 -0.78763406 275.8087397 -0.84765625 278.80859375 C-0.8852002 279.94022949 -0.92274414 281.07186523 -0.96142578 282.23779297 C-0.98052002 284.10008545 -0.98052002 284.10008545 -1 286 C-1.03729451 287.36222463 -1.07760577 288.72436931 -1.12060547 290.08642578 C-1.23449773 293.90774745 -1.31483216 297.72910088 -1.38815308 301.5513916 C-1.6844699 316.63001464 -2.20569416 331.68659298 -2.9375 346.75 C-3.8353585 365.28881342 -4.47333766 383.82962993 -5.05532837 402.38082886 C-5.53677659 417.58602649 -6.09551199 432.78379037 -6.79296875 447.98046875 C-6.84443841 449.10245918 -6.84443841 449.10245918 -6.89694786 450.24711609 C-7.2336505 457.56201671 -7.57833076 464.87650702 -7.93441868 472.19048977 C-8.03362589 474.2356911 -8.13140296 476.28095582 -8.22871399 478.32624817 C-8.34722441 480.80759127 -8.46859781 483.28880035 -8.59367371 485.76982117 C-8.75582123 489.1796036 -8.88953151 492.58815388 -9 496 C-9.0213073 496.65502377 -9.04261459 497.31004753 -9.06456757 497.9849205 C-9.12313665 500.02209807 -9.16102603 502.05868005 -9.19287109 504.09643555 C-9.21658783 505.31485641 -9.24030457 506.53327728 -9.26473999 507.78862 C-8.87343401 512.53528553 -7.14888429 514.53622728 -4 518 C-4 518.99 -4 519.98 -4 521 C-15.88 521 -27.76 521 -40 521 C-40.495 516.58625 -40.99 512.1725 -41.5 507.625 C-43.58430526 489.79053166 -46.44817514 472.08934725 -49.35742188 454.37353516 C-49.61836639 452.77983093 -49.61836639 452.77983093 -49.88458252 451.15393066 C-50.21472002 449.14220627 -50.54725014 447.13087264 -50.88250732 445.11999512 C-51.02988342 444.22462036 -51.17725952 443.32924561 -51.32910156 442.40673828 C-51.45915588 441.62469025 -51.58921021 440.84264221 -51.72320557 440.03689575 C-52 438 -52 438 -52 435 C-53.30710937 435.99580078 -53.30710937 435.99580078 -54.640625 437.01171875 C-72.29915953 450.21317125 -91.79191792 455.57476481 -113.78662109 452.62646484 C-121.21794236 451.43098589 -128.61024814 450.02247116 -135.8203125 447.84765625 C-138.79372347 447.05499018 -140.6270105 446.86007613 -143.625 447.3125 C-144.388125 447.42078125 -145.15125 447.5290625 -145.9375 447.640625 C-147.50629379 447.91397543 -149.06791776 448.22883952 -150.625 448.5625 C-153.78418909 449.14445588 -156.79670608 449.12320361 -160 449 C-161 448 -161 448 -161.19921875 444.46484375 C-161.13738474 439.90635948 -160.12392155 435.90492346 -158.8125 431.5625 C-158.59053955 430.79695801 -158.3685791 430.03141602 -158.13989258 429.24267578 C-157.43656405 426.82540113 -156.71857735 424.4127802 -156 422 C-155.51724906 420.35054695 -155.03546877 418.70080949 -154.5546875 417.05078125 C-153.38098245 413.03048048 -152.19412174 409.01428159 -151 405 C-150.32743164 405.20278564 -149.65486328 405.40557129 -148.96191406 405.61450195 C-148.07213867 405.88222412 -147.18236328 406.14994629 -146.265625 406.42578125 C-144.94739746 406.82277222 -144.94739746 406.82277222 -143.60253906 407.2277832 C-131.49840194 410.8192828 -120.41892336 411.78603491 -108.62109375 406.484375 C-99.32616781 401.22048252 -94.95224506 393.509876 -91.9375 383.45703125 C-90.69923446 378.35818747 -90.65809034 373.35070226 -90.6875 368.125 C-90.69096436 367.12138428 -90.69442871 366.11776855 -90.69799805 365.08374023 C-90.87369718 352.83819049 -92.50880217 341.3976996 -97 330 C-97.45810904 328.72704306 -97.91129219 327.45230194 -98.359375 326.17578125 C-102.52545665 314.51582413 -107.6443305 304.03045841 -115 294 C-115 293.34 -115 292.68 -115 292 C-121.45320968 294.47063114 -127.90049523 296.9535499 -134.32421875 299.5 C-165.18679759 311.67875074 -198.82441942 320.78156476 -232.1875 321.3125 C-232.97882324 321.33046631 -233.77014648 321.34843262 -234.58544922 321.36694336 C-240.29616187 321.35773055 -244.43960909 320.21900546 -248.875 316.375 C-250.65178532 312.62400876 -250.64755859 309.06725003 -250 305 C-247.51104891 300.59647115 -244.59628843 298.92218053 -240 297 C-237.13811165 296.50533456 -234.27187241 296.35975123 -231.375 296.1875 C-217.99168722 295.11385754 -205.05281358 292.03039459 -192 289 C-191.04996094 288.7844043 -190.09992188 288.56880859 -189.12109375 288.34667969 C-177.12574145 285.61283467 -165.61320708 282.003621 -154.06933594 277.75634766 C-152.39921502 277.14591413 -150.7203673 276.55938769 -149.0390625 275.98046875 C-131.13848004 269.79714452 -114.40366259 261.39028985 -98 252 C-97.29117676 251.5978125 -96.58235352 251.195625 -95.85205078 250.78125 C-66.21595552 233.88405537 -37.50150585 210.60890167 -16 184 C-15.40574219 183.37351562 -14.81148437 182.74703125 -14.19921875 182.1015625 C-12.71059718 180.04564514 -12.71059718 180.04564514 -13.54296875 177.6640625 C-14.94124652 175.10742593 -16.45418969 172.66772178 -18.07128906 170.24414062 C-38.33460844 139.72959044 -51.40693905 103.71206663 -51.3125 66.9375 C-51.32861328 65.67873047 -51.34472656 64.41996094 -51.36132812 63.12304688 C-51.36721352 51.72303552 -49.72815308 41.03848518 -44.375 30.875 C-44.02872559 30.2054126 -43.68245117 29.5358252 -43.32568359 28.84594727 C-35.86428153 14.91632753 -25.90664234 6.23845569 -11.07421875 0.8671875 C-7.14476686 -0.24124747 -4.04499871 -0.3965685 0 0 Z " fill="#419CF2" transform="translate(506,140)"/>
<path d="M0 0 C6.73670646 2.48445912 12.70024948 5.69662587 18.3671875 10.09375 C19.10453125 10.64417969 19.841875 11.19460937 20.6015625 11.76171875 C34.04416976 22.63168911 41.04606818 39.18048993 42.90307617 56.06201172 C46.73641545 97.68255555 30.48694579 141.85939654 7.265625 176.015625 C6.04058008 178.84920716 6.32258129 180.20757509 7.3671875 183.09375 C9.17688909 185.34982442 9.17688909 185.34982442 11.4921875 187.40625 C14.42900012 190.20872892 17.23735009 193.00091304 19.8671875 196.09375 C26.13013998 203.36918903 33.06733144 209.87815581 40.3671875 216.09375 C41.28886719 216.90457031 42.21054687 217.71539062 43.16015625 218.55078125 C51.77324633 226.06995002 60.90754936 232.68295392 70.3671875 239.09375 C70.9451709 239.48771973 71.5231543 239.88168945 72.11865234 240.28759766 C117.51098547 271.01450694 175.22742881 292.06179991 230.0625 296.44140625 C234.27239539 297.27243761 236.79420747 298.7132193 240.3671875 301.09375 C242.84581202 304.81168677 242.89821296 307.78654347 242.3671875 312.09375 C241.00679173 315.49473942 239.89693065 316.75993925 236.80078125 318.7109375 C232.53323634 320.42960747 229.10266943 320.50781093 224.5546875 320.40625 C223.7201001 320.3956958 222.8855127 320.3851416 222.02563477 320.37426758 C213.72139146 320.20062411 205.574328 319.32650979 197.3671875 318.09375 C196.64176758 317.98659668 195.91634766 317.87944336 195.16894531 317.76904297 C177.45363945 315.10593244 160.3866753 311.12228661 143.4296875 305.34375 C142.65290649 305.08251343 141.87612549 304.82127686 141.07580566 304.55212402 C129.27735347 300.58293095 117.68693104 296.29471325 106.3671875 291.09375 C106.10292969 291.81820313 105.83867188 292.54265625 105.56640625 293.2890625 C104.35334387 296.12612695 102.91354705 298.42152384 101.1796875 300.96875 C88.78693832 320.25207341 82.03656872 342.54554444 81.9296875 365.40625 C81.88038086 367.24993164 81.88038086 367.24993164 81.83007812 369.13085938 C81.75981805 381.23475349 85.0503517 392.08384455 93.3671875 401.09375 C99.82546726 407.55202976 107.75844451 409.49461406 116.6796875 409.59375 C123.45699421 409.5487629 129.33794929 408.32604271 135.73046875 405.96875 C138.3671875 405.09375 138.3671875 405.09375 142.3671875 405.09375 C144.09822003 410.51380842 145.82485666 415.93520564 147.54296875 421.359375 C148.58494148 424.64687679 149.63738193 427.92967577 150.72265625 431.203125 C154.02032542 441.34613631 154.02032542 441.34613631 153.3671875 447.09375 C153.0371875 447.42375 152.7071875 447.75375 152.3671875 448.09375 C150.32273681 448.02856462 148.28045049 447.89053982 146.2421875 447.71875 C145.12585938 447.62851562 144.00953125 447.53828125 142.859375 447.4453125 C139.3671875 447.09375 139.3671875 447.09375 136.171875 446.37109375 C130.64499572 445.96821035 125.92168915 447.58380963 120.6171875 449.03125 C98.56191756 454.54114194 77.00968691 454.82608997 56.8046875 443.65625 C52.24695617 440.91102721 48.33651672 437.61039201 44.3671875 434.09375 C44.27219971 434.76913818 44.17721191 435.44452637 44.0793457 436.14038086 C42.03598012 450.63554333 39.93382959 465.12032644 37.7421875 479.59375 C37.63822662 480.28217987 37.53426575 480.97060974 37.42715454 481.67990112 C36.44004714 488.21010883 35.43852904 494.73681164 34.34375 501.25 C33.29559599 507.5221536 32.33413894 513.80856563 31.3671875 520.09375 C19.8171875 520.09375 8.2671875 520.09375 -3.6328125 520.09375 C-2.6328125 515.09375 -2.6328125 515.09375 -1.08616638 512.92832947 C1.12932756 508.60729402 0.72383536 504.52409533 0.62084961 499.74047852 C0.6090438 498.68994828 0.59723799 497.63941805 0.58507442 496.55705357 C0.39790623 483.33093317 -0.10252918 470.11086852 -0.6095264 456.89384151 C-0.74952771 453.22154005 -0.88467511 449.54905918 -1.02052307 445.87660217 C-1.24868826 439.72726986 -1.4802411 433.57807293 -1.71411133 427.42895508 C-1.98280184 420.36365148 -2.24680445 413.29818503 -2.50816768 406.23260683 C-2.78942893 398.63039787 -3.07407876 391.02831844 -3.35971189 383.42627263 C-3.44063311 381.26672659 -3.52094053 379.10715848 -3.60110283 376.94758415 C-3.75151052 372.90106919 -3.90572021 368.85470724 -4.06030273 364.80834961 C-4.10346115 363.63763412 -4.14661957 362.46691864 -4.19108582 361.26072693 C-4.47096437 354.0337099 -4.89424344 346.82684266 -5.41447258 339.61306095 C-5.79715832 333.44474267 -5.86153701 327.27194746 -5.95703125 321.09375 C-6.01370321 318.30329884 -6.07629097 315.51298499 -6.13867188 312.72265625 C-6.23529044 308.38667122 -6.32393331 304.05106683 -6.38061523 299.71435547 C-6.42772478 296.16247329 -6.50341216 292.6121987 -6.59812355 289.0612793 C-6.64348495 287.07701848 -6.65897167 285.09214609 -6.67375183 283.10742188 C-6.68747654 275.60558112 -6.68747654 275.60558112 -10.64257812 269.64794922 C-13.94795763 266.46528618 -14.16133188 263.91607724 -14.42504883 259.38330078 C-14.47138145 256.68003435 -14.48565958 253.99124346 -14.46484375 251.2890625 C-14.47143675 249.84088335 -14.47965886 248.39271079 -14.48942566 246.94454956 C-14.50274242 243.91659336 -14.49400569 240.88969876 -14.4699707 237.86181641 C-14.4414282 234.00217986 -14.47141284 230.14560394 -14.51860523 226.28624153 C-14.54795698 223.29697995 -14.54401996 220.30843601 -14.53058434 217.31908798 C-14.52844659 215.89746592 -14.53679499 214.47578425 -14.55631447 213.05429459 C-14.65178385 204.68555463 -14.17200708 199.11288097 -8.373703 192.81497192 C-7.79920914 192.24696869 -7.22471527 191.67896545 -6.6328125 191.09375 C-5.818125 190.13984375 -5.0034375 189.1859375 -4.1640625 188.203125 C-2.7958644 186.61391029 -1.42070167 185.03066823 -0.0390625 183.453125 C1.55721139 181.21350096 1.55721139 181.21350096 1.42578125 178.734375 C-0.08664671 174.96167647 -2.470451 172.18583432 -5.0703125 169.09375 C-6.07464414 167.89009518 -7.07350766 166.68185319 -8.06640625 165.46875 C-8.51040771 164.94023437 -8.95440918 164.41171875 -9.41186523 163.8671875 C-10.95016061 161.63279885 -11.91176653 159.71811773 -12.6328125 157.09375 C-11.88525391 154.8840332 -11.88525391 154.8840332 -10.484375 152.64453125 C-9.97729004 151.80583496 -9.47020508 150.96713867 -8.94775391 150.10302734 C-8.39007324 149.21309082 -7.83239258 148.3231543 -7.2578125 147.40625 C9.62974457 119.14294496 22.71088602 84.31789697 14.3515625 51.1171875 C10.92621752 40.59648505 5.87552987 33.5027025 -3.55078125 27.66015625 C-7.5841848 25.61022618 -11.55788048 24.70098944 -15.9609375 23.765625 C-20.461746 22.63384274 -23.13242539 20.4941113 -26.5078125 17.34375 C-28.22482894 13.90971711 -28.50245267 10.77773748 -27.6328125 7.09375 C-21.35209112 -2.9323557 -10.64072138 -2.65445953 0 0 Z " fill="#FD8920" transform="translate(525.6328125,140.90625)"/>
<path d="M0 0 C8.69809577 7.94173962 9.51013422 19.19571164 10.05859375 30.36328125 C10.58968904 52.18378729 9.31943727 75.24755386 4.875 96.625 C4.58133545 98.07036133 4.58133545 98.07036133 4.28173828 99.54492188 C-3.80407063 138.66160999 -19.34139841 185.0028396 -54.12109375 208.75 C-68.72831005 217.86763826 -83.22593695 223.85023296 -100.75 223.75 C-101.53963135 223.7495166 -102.3292627 223.7490332 -103.14282227 223.74853516 C-108.75503827 223.71542474 -114.26778192 223.35376178 -119.83984375 222.6484375 C-122.40898279 222.40756311 -122.40898279 222.40756311 -125.125 224.625 C-130.31200682 227.56430386 -135.2182251 227.85218365 -141.125 227.625 C-142.125 226.625 -142.125 226.625 -142.32421875 223.08984375 C-142.26238474 218.53135948 -141.24892155 214.52992346 -139.9375 210.1875 C-139.71553955 209.42195801 -139.4935791 208.65641602 -139.26489258 207.86767578 C-138.56156405 205.45040113 -137.84357735 203.0377802 -137.125 200.625 C-136.64224906 198.97554695 -136.16046877 197.32580949 -135.6796875 195.67578125 C-134.50598245 191.65548048 -133.31912174 187.63928159 -132.125 183.625 C-131.45243164 183.82778564 -130.77986328 184.03057129 -130.08691406 184.23950195 C-129.19713867 184.50722412 -128.30736328 184.77494629 -127.390625 185.05078125 C-126.51180664 185.31544189 -125.63298828 185.58010254 -124.72753906 185.8527832 C-112.62340194 189.4442828 -101.54392336 190.41103491 -89.74609375 185.109375 C-80.45116781 179.84548252 -76.07724506 172.134876 -73.0625 162.08203125 C-71.82423446 156.98318747 -71.78309034 151.97570226 -71.8125 146.75 C-71.81596436 145.74638428 -71.81942871 144.74276855 -71.82299805 143.70874023 C-71.99869718 131.46319049 -73.63380217 120.0226996 -78.125 108.625 C-78.58310904 107.35204306 -79.03629219 106.07730194 -79.484375 104.80078125 C-83.65045665 93.14082413 -88.7693305 82.65545841 -96.125 72.625 C-96.125 71.965 -96.125 71.305 -96.125 70.625 C-102.57820968 73.09563114 -109.02549523 75.5785499 -115.44921875 78.125 C-136.26951771 86.34094439 -156.89379697 91.61368509 -178.7578125 96.171875 C-179.98387207 96.42807617 -181.20993164 96.68427734 -182.47314453 96.94824219 C-187.9976623 97.9720397 -193.49206848 98.77551455 -199.125 98.6875 C-199.888125 98.67847656 -200.65125 98.66945313 -201.4375 98.66015625 C-201.994375 98.64855469 -202.55125 98.63695312 -203.125 98.625 C-203.125 97.965 -203.125 97.305 -203.125 96.625 C-204.07375 96.33625 -205.0225 96.0475 -206 95.75 C-209.125 94.625 -209.125 94.625 -211.125 92.625 C-211.6875 90.375 -211.6875 90.375 -211.125 87.625 C-206.7242393 82.50196424 -201.87891087 80.47520244 -195.4375 79.0625 C-194.20616333 78.76472656 -194.20616333 78.76472656 -192.94995117 78.4609375 C-191.21991218 78.04364166 -189.48782807 77.63474309 -187.75390625 77.23388672 C-184.30537164 76.43516409 -180.86817023 75.59411209 -177.43237305 74.74243164 C-175.84956423 74.35071782 -174.26523578 73.96505475 -172.67895508 73.58764648 C-164.71384565 71.6476567 -156.92802438 69.12374333 -149.125 66.625 C-148.44013519 66.40630249 -147.75527039 66.18760498 -147.0496521 65.96228027 C-142.90793921 64.63735455 -138.77292243 63.29330346 -134.64282227 61.93261719 C-133.25538005 61.47735508 -131.86669697 61.02585744 -130.47680664 60.578125 C-120.29038075 57.29441362 -110.74044983 53.31303188 -101.125 48.625 C-98.91529605 47.58721316 -96.70439451 46.55197168 -94.4921875 45.51953125 C-76.42894519 36.97890049 -59.04949369 27.67585572 -42.3359375 16.71875 C-37.95249963 13.86044988 -33.49509663 11.13413164 -29.02734375 8.41015625 C-26.59512488 6.9141616 -24.20294788 5.37351372 -21.8125 3.8125 C-14.96249056 -0.44716974 -7.85511791 -3.45625188 0 0 Z " fill="#57B4F9" transform="translate(487.125,361.375)"/>
<path d="M0 0 C2.27220993 1.6595663 4.272291 3.39918627 6.2890625 5.359375 C6.98386719 6.01550781 7.67867188 6.67164063 8.39453125 7.34765625 C18.29965397 17.51295105 21.53249839 29.12792576 21.46533203 42.91455078 C21.28100055 56.16089487 16.73545595 66.55663554 7.5390625 76.29296875 C-4.4494814 87.30328077 -18.19668517 90.29928677 -34.0234375 89.7421875 C-39.79312634 89.37756885 -44.59189111 88.05804855 -49.7109375 85.359375 C-50.54496094 84.946875 -51.37898438 84.534375 -52.23828125 84.109375 C-65.20268917 77.07783172 -72.82471242 66.54752073 -77.58203125 52.8515625 C-80.75579295 40.63805196 -78.57495744 28.12163767 -72.5859375 17.171875 C-65.50515507 5.88089762 -54.91375835 -3.22465318 -41.83984375 -6.83203125 C-27.15314132 -10.10730523 -12.82034839 -7.75871228 0 0 Z " fill="#59B4F7" transform="translate(430.7109375,263.640625)"/>
<path d="M0 0 C8.37282609 7.43054663 16.71098792 17.44112269 17.57495117 29.11987305 C17.76465145 46.23165377 16.22270315 58.8707747 3.8671875 71.8359375 C-7.27261171 82.44016944 -19.61570719 86.87283423 -34.79785156 86.61401367 C-40.74770901 86.37023647 -46.08163858 85.57126652 -51.5703125 83.15625 C-52.23675781 82.88941406 -52.90320313 82.62257813 -53.58984375 82.34765625 C-65.48229611 77.06994071 -74.03485694 67.70664207 -78.9453125 55.78125 C-83.17163295 44.49881193 -83.79669951 29.5706283 -78.82421875 18.46484375 C-71.30389457 4.61901325 -61.31759907 -4.28209717 -46.5703125 -9.84375 C-30.11368533 -13.66787485 -13.28869124 -10.56786128 0 0 Z " fill="#FD8B20" transform="translate(654.5703125,266.84375)"/>
<path d="M0 0 C9.42418395 6.40989776 14.23724214 15.96972925 16.90234375 26.81640625 C22.8221745 59.9118359 9.7719414 93.10387879 -6.41015625 121.37890625 C-6.83079346 122.12430664 -7.25143066 122.86970703 -7.68481445 123.63769531 C-8.73511295 125.41840658 -9.90684513 127.12642742 -11.09765625 128.81640625 C-12.08765625 128.81640625 -13.07765625 128.81640625 -14.09765625 128.81640625 C-31.64001309 97.75780726 -52.04668707 61.2680667 -43.91015625 24.25390625 C-40.87141246 14.15289679 -35.94802895 4.33059501 -26.8984375 -1.6328125 C-17.8278729 -6.14434986 -8.66192802 -4.88745659 0 0 Z " fill="#F0F3F5" transform="translate(525.09765625,169.18359375)"/>
<path d="M0 0 C-0.78375 0.763125 -1.5675 1.52625 -2.375 2.3125 C-5.65738515 5.67303718 -6.9169952 7.1422837 -7.375 11.875 C-7.28451479 14.95715249 -6.97841278 16.0373625 -5.375 18.8125 C-2.76257341 21.21868239 -0.24973719 22.5967044 3 24 C0.89734793 25.07070532 -1.20741802 26.09138715 -3.3671875 27.04296875 C-13.26942594 31.56221464 -17.9335454 38.02132417 -22 48 C-31.68563174 74.18994824 -20.91933984 104.97455598 -10 129 C-2.85154705 143.85844272 5.45922341 157.42933581 15.65234375 170.3671875 C16.07805664 170.91536133 16.50376953 171.46353516 16.94238281 172.02832031 C18.1074395 173.52233418 19.29323775 175.00010828 20.48046875 176.4765625 C22 179 22 179 21.96875 181.0390625 C20.71068549 183.58562857 19.13489297 185.57007089 17.3125 187.75 C13.74673887 192.08031171 10.32884015 196.48589101 7 201 C3.66973266 199.59778217 1.99596215 198.05771488 -0.12890625 195.15625 C-0.68900391 194.40472656 -1.24910156 193.65320313 -1.82617188 192.87890625 C-2.39916016 192.09386719 -2.97214844 191.30882812 -3.5625 190.5 C-4.70532327 188.94473883 -5.85229457 187.39251495 -7.00390625 185.84375 C-7.50736572 185.15474609 -8.0108252 184.46574219 -8.52954102 183.75585938 C-10.06822141 181.75102708 -10.06822141 181.75102708 -13 180 C-13.68832541 178.34216094 -14.35074658 176.67352688 -15 175 C-16.01009769 173.4059716 -17.02388484 171.81390757 -18.07128906 170.24414062 C-38.33460844 139.72959044 -51.40693905 103.71206663 -51.3125 66.9375 C-51.32861328 65.67873047 -51.34472656 64.41996094 -51.36132812 63.12304688 C-51.36721352 51.72303552 -49.72815308 41.03848518 -44.375 30.875 C-44.02872559 30.2054126 -43.68245117 29.5358252 -43.32568359 28.84594727 C-35.86428153 14.91632753 -25.90664234 6.23845569 -11.07421875 0.8671875 C-7.14476686 -0.24124747 -4.04499871 -0.3965685 0 0 Z " fill="#65C0F2" transform="translate(506,140)"/>
<path d="M0 0 C6.73670646 2.48445912 12.70024948 5.69662587 18.3671875 10.09375 C19.10453125 10.64417969 19.841875 11.19460937 20.6015625 11.76171875 C34.04416976 22.63168911 41.04606818 39.18048993 42.90307617 56.06201172 C46.8881423 99.32993235 29.18109077 143.64089723 5.3671875 179.09375 C1.83899884 178.537816 0.52969463 177.51754011 -1.578125 174.671875 C-2.09761719 173.97578125 -2.61710938 173.2796875 -3.15234375 172.5625 C-3.68214844 171.8303125 -4.21195313 171.098125 -4.7578125 170.34375 C-5.29535156 169.62703125 -5.83289063 168.9103125 -6.38671875 168.171875 C-11.48450014 161.25618154 -11.48450014 161.25618154 -12.6328125 157.09375 C-11.88525391 154.8840332 -11.88525391 154.8840332 -10.484375 152.64453125 C-9.97729004 151.80583496 -9.47020508 150.96713867 -8.94775391 150.10302734 C-8.39007324 149.21309082 -7.83239258 148.3231543 -7.2578125 147.40625 C9.62974457 119.14294496 22.71088602 84.31789697 14.3515625 51.1171875 C10.92621752 40.59648505 5.87552987 33.5027025 -3.55078125 27.66015625 C-7.5841848 25.61022618 -11.55788048 24.70098944 -15.9609375 23.765625 C-20.461746 22.63384274 -23.13242539 20.4941113 -26.5078125 17.34375 C-28.22482894 13.90971711 -28.50245267 10.77773748 -27.6328125 7.09375 C-21.35209112 -2.9323557 -10.64072138 -2.65445953 0 0 Z " fill="#FD731C" transform="translate(525.6328125,140.90625)"/>
<path d="M0 0 C2.15153977 2.15153977 2.4791651 3.08932883 3.26171875 5.9453125 C3.60420654 7.17217773 3.60420654 7.17217773 3.95361328 8.42382812 C4.1957959 9.31521484 4.43797852 10.20660156 4.6875 11.125 C5.21930987 13.03406108 5.75189292 14.94290691 6.28515625 16.8515625 C6.56375488 17.85477539 6.84235352 18.85798828 7.12939453 19.89160156 C8.58971648 25.10551606 10.10636068 30.3028242 11.625 35.5 C11.92204834 36.51803711 12.21909668 37.53607422 12.52514648 38.58496094 C14.35518071 44.84094598 16.22266997 51.08227553 18.1640625 57.3046875 C19.00917084 60.02956953 19.81914509 62.76328482 20.625 65.5 C21.38259224 68.07248356 22.17766995 70.40864088 23.25 72.875 C24.13747745 75.38951946 24.12108903 76.58534671 23 79 C19.80693695 80.06435435 17.35556004 80.20065353 14 80.25 C12.948125 80.27578125 11.89625 80.3015625 10.8125 80.328125 C7.55172398 79.94770113 7.01913886 79.46985509 5 77 C4.20043945 75.13061523 4.20043945 75.13061523 3.61328125 73.05859375 C3.39736328 72.31029297 3.18144531 71.56199219 2.95898438 70.79101562 C2.63897461 69.62602539 2.63897461 69.62602539 2.3125 68.4375 C2.08755859 67.65697266 1.86261719 66.87644531 1.63085938 66.07226562 C0 60.32708017 0 60.32708017 0 58 C-9.57 58.33 -19.14 58.66 -29 59 C-31.5481828 65.16059423 -31.5481828 65.16059423 -34.08544922 71.32568359 C-34.40529785 72.09219238 -34.72514648 72.85870117 -35.0546875 73.6484375 C-35.37937012 74.43395996 -35.70405273 75.21948242 -36.03857422 76.02880859 C-37 78 -37 78 -39 80 C-41.75 80.23046875 -41.75 80.23046875 -45 80.1875 C-46.0725 80.18105469 -47.145 80.17460938 -48.25 80.16796875 C-51 80 -51 80 -53 79 C-52.35204788 74.66046644 -50.77403433 70.95637866 -48.9296875 67.015625 C-48.61638992 66.33475327 -48.30309235 65.65388153 -47.9803009 64.95237732 C-46.95004861 62.71597831 -45.91251123 60.48303943 -44.875 58.25 C-44.15671749 56.69403871 -43.43903324 55.13780112 -42.72192383 53.58129883 C-41.61023338 51.1684742 -40.49817233 48.75582892 -39.38417053 46.34407043 C-36.80472142 40.75808441 -34.24758875 35.16236937 -31.70703125 29.55859375 C-31.36607422 28.80661713 -31.02511719 28.0546405 -30.67382812 27.27987671 C-29.35665137 24.37360603 -28.04021833 21.46700012 -26.72479248 18.55993652 C-25.82144464 16.56423773 -24.91669198 14.5691809 -24.01171875 12.57421875 C-23.50084717 11.44588623 -22.98997559 10.31755371 -22.46362305 9.1550293 C-18.30574411 0.19218201 -18.30574411 0.19218201 -15.8125 -1.375 C-10.25469986 -2.6100667 -5.1394943 -2.72090875 0 0 Z " fill="#FD7C1E" transform="translate(278,701)"/>
<path d="M0 0 C0.66 0 1.32 0 2 0 C5.95106283 8.72526375 6.26122677 17.34776088 3.265625 26.49609375 C0.78839095 31.39704136 -3.1194556 35.17640279 -7 39 C-4.19925162 39 -3.17115852 37.72415529 -1 36 C2.77777778 33 2.77777778 33 5 33 C5 32.34 5 31.68 5 31 C5.70125 30.38125 6.4025 29.7625 7.125 29.125 C14.35130094 22.12452096 17.07032079 11.546834 19 2 C22.06169525 5.07785195 22.35991227 7.67772932 22.36669922 11.93896484 C22.33987061 13.05198975 22.33987061 13.05198975 22.3125 14.1875 C22.29340576 15.33532959 22.29340576 15.33532959 22.27392578 16.50634766 C21.93258707 29.76213765 17.46730864 40.17511736 8.25 49.93359375 C-3.7385439 60.94390577 -17.48574767 63.93991177 -33.3125 63.3828125 C-39.08218884 63.01819385 -43.88095361 61.69867355 -49 59 C-50.25103516 58.38125 -50.25103516 58.38125 -51.52734375 57.75 C-63.59332201 51.2057406 -71.12747769 41.61475101 -76 29 C-76.68082925 26.1946554 -76.94208569 23.89571552 -77 21 C-74 22 -74 22 -71.8125 24.3125 C-64.53761004 31.26406152 -56.30194622 32.37651526 -46.5390625 32.27734375 C-29.84505457 30.96909368 -16.43567018 21.41760571 -5.5625 9.3125 C-3.18694065 6.4322184 -1.50511025 3.42830668 0 0 Z " fill="#3890EE" transform="translate(430,290)"/>
<path d="M0 0 C0.66 0 1.32 0 2 0 C2.16435547 0.90878906 2.16435547 0.90878906 2.33203125 1.8359375 C4.23698922 11.90278854 6.0606244 20.19907664 13 28 C13.62261719 28.70382812 14.24523437 29.40765625 14.88671875 30.1328125 C19.2038206 34.72980504 23.20684367 37.51721872 29 40 C28.29875 39.525625 27.5975 39.05125 26.875 38.5625 C20.72033775 33.07682278 16.54711022 26.12756785 15.6640625 17.8515625 C15.5775572 10.70622484 16.18232951 6.08441234 20 0 C21.63077427 2.13446908 23.19219728 4.28585462 24.69140625 6.515625 C33.24594219 19.01703452 45.76234729 28.44012228 60.875 31.4375 C72.14290525 32.91364479 82.74149256 31.7476437 92.37890625 25.28125 C94.0517678 23.95908473 95.52722144 22.53992652 97 21 C98.02670294 29.89809216 94.19513857 36.72155731 88.94921875 43.74609375 C80.31085122 53.82674644 69.1941337 61.77398704 55.67724609 63.25439453 C46.54977194 63.83544906 37.48732211 63.73442173 29 60 C28.33355469 59.73316406 27.66710937 59.46632813 26.98046875 59.19140625 C15.08801639 53.91369071 6.53545556 44.55039207 1.625 32.625 C-0.05509869 28.13986698 -1.12595955 24.18381503 -1.1328125 19.375 C-1.13410156 18.50359375 -1.13539063 17.6321875 -1.13671875 16.734375 C-1.13285156 15.83203125 -1.12898437 14.9296875 -1.125 14 C-1.12886719 13.09765625 -1.13273438 12.1953125 -1.13671875 11.265625 C-1.13542969 10.39421875 -1.13414062 9.5228125 -1.1328125 8.625 C-1.13168457 7.83351563 -1.13055664 7.04203125 -1.12939453 6.2265625 C-1.00174233 4.02998126 -0.60641657 2.11011287 0 0 Z " fill="#FC6815" transform="translate(574,290)"/>
<path d="M0 0 C0.96808594 -0.01417969 1.93617188 -0.02835938 2.93359375 -0.04296875 C5.5625 0.1875 5.5625 0.1875 8.5625 2.1875 C8.5625 3.5075 8.5625 4.8275 8.5625 6.1875 C9.06136719 5.754375 9.56023437 5.32125 10.07421875 4.875 C15.85653485 0.39033114 20.2623952 -0.57171271 27.5390625 -0.20703125 C33.63157557 0.58798661 38.06061117 2.9357161 42.5625 7.1875 C47.70559857 14.04496475 48.50771666 22.88803666 47.5625 31.1875 C45.14068534 39.97594082 41.22807056 45.46327678 33.46484375 50.171875 C29.66024099 52.20307976 26.43728378 52.37915057 22.1875 52.4375 C21.06601562 52.46328125 19.94453125 52.4890625 18.7890625 52.515625 C15.23718114 52.15441673 13.52027711 51.09148654 10.5625 49.1875 C10.57035522 50.3156311 10.57035522 50.3156311 10.57836914 51.46655273 C10.59907227 54.85269342 10.61213877 58.23882084 10.625 61.625 C10.63337891 62.80900391 10.64175781 63.99300781 10.65039062 65.21289062 C10.65522461 66.89995117 10.65522461 66.89995117 10.66015625 68.62109375 C10.66801147 70.18428345 10.66801147 70.18428345 10.67602539 71.77905273 C10.5625 74.1875 10.5625 74.1875 9.5625 75.1875 C7.44241884 75.36563354 5.31458388 75.45539228 3.1875 75.5 C1.44339844 75.55607422 1.44339844 75.55607422 -0.3359375 75.61328125 C-3.4375 75.1875 -3.4375 75.1875 -5.10432434 73.59088135 C-6.88848326 70.37449029 -6.83684339 67.9805145 -6.86987305 64.30761719 C-6.8800647 63.62428314 -6.89025635 62.9409491 -6.90075684 62.23690796 C-6.93086837 59.98598004 -6.94014953 57.7354778 -6.94921875 55.484375 C-6.96606688 53.92066028 -6.98421731 52.35695908 -7.00361633 50.79327393 C-7.05110822 46.68339262 -7.08092265 42.57356619 -7.10705566 38.46350098 C-7.13686539 34.26722376 -7.18339428 30.07113557 -7.22851562 25.875 C-7.31453946 17.64592622 -7.38188864 9.41683523 -7.4375 1.1875 C-4.84996844 -0.10626578 -2.88791015 0.01917603 0 0 Z " fill="#FD751B" transform="translate(310.4375,728.8125)"/>
<path d="M0 0 C2.50476531 1.97798993 2.91132739 2.56648948 3.5625 5.75 C2.78891719 10.21958954 0.49092516 13.12911751 -3 16 C-3.99 16 -4.98 16 -6 16 C-6.45375 15.236875 -6.9075 14.47375 -7.375 13.6875 C-9.29984665 10.50409977 -10.66928639 9.60984491 -14 8 C-17.24532914 7.49159284 -17.24532914 7.49159284 -20.625 7.5625 C-21.75164063 7.54316406 -22.87828125 7.52382813 -24.0390625 7.50390625 C-27.06882717 7.7275248 -27.06882717 7.7275248 -28.90234375 9.80859375 C-30.59103067 13.17995803 -29.95673505 15.42818916 -29 19 C-25.88307297 22.96141465 -22.0008082 24.45951113 -17.4375 26.25 C-9.02471001 29.73528502 -0.01609524 34.05141831 5 42 C7.18552438 48.18592867 7.13082035 56.37163021 4.5 62.375 C0.76645633 68.61053648 -4.62896379 71.86783589 -11.5 73.875 C-23.64689901 76.4427622 -35.49951439 76.47228368 -46.16015625 69.609375 C-49.19992191 67.31293176 -50.76357447 65.83658265 -51.8125 62.125 C-50.65185504 57.66098093 -48.32582891 54.1961521 -45 51 C-42.796875 50.26953125 -42.796875 50.26953125 -41 50 C-40.505 51.051875 -40.01 52.10375 -39.5 53.1875 C-36.91983347 57.61064263 -33.81201026 60.2124539 -29 62 C-23.68712435 62.70544407 -18.65559957 62.94644928 -14 60 C-12.42101947 56.84203893 -12.18071829 53.39329364 -13 50 C-16.95570068 44.90369851 -22.1063625 42.80747319 -27.8125 40.1875 C-36.28219704 36.11532561 -43.58186058 32.54156951 -47.5 23.5625 C-48.42482944 16.97309025 -49.14924637 11.39908281 -45.3203125 5.62890625 C-33.58841222 -8.8450654 -15.58826405 -6.93462875 0 0 Z " fill="#3391EF" transform="translate(551,708)"/>
<path d="M0 0 C1.91595968 -0.08133791 3.83291932 -0.13934367 5.75 -0.1875 C7.35101562 -0.23970703 7.35101562 -0.23970703 8.984375 -0.29296875 C12.34033171 0.03306331 13.66182741 0.60749119 16 3 C16.54589844 6.09448242 16.54589844 6.09448242 16.609375 9.85546875 C16.63417938 10.84792351 16.63417938 10.84792351 16.65948486 11.86042786 C16.70799288 13.96954601 16.72933927 16.07794323 16.75 18.1875 C16.77815777 19.61917695 16.80808495 21.05082028 16.83984375 22.48242188 C16.91374893 25.98812393 16.96330788 29.49368875 17 33 C17.75667969 32.36578125 18.51335938 31.7315625 19.29296875 31.078125 C24.48227501 27.09441514 30.58438752 26.22865728 37 27 C43.2035165 28.36707123 46.42244217 30.79627952 50 36 C51.30920503 39.9276151 51.23462868 43.72570631 51.31640625 47.82421875 C51.33718735 48.68561966 51.35796844 49.54702057 51.37937927 50.43452454 C51.44474909 53.18543544 51.50370132 55.93644156 51.5625 58.6875 C51.60569717 60.55274421 51.64931185 62.4179788 51.69335938 64.28320312 C51.80041763 68.85537124 51.90172054 73.4276351 52 78 C48.77602808 79.07465731 46.32529214 79.16691803 42.9375 79.1875 C41.87402344 79.20167969 40.81054688 79.21585938 39.71484375 79.23046875 C37 79 37 79 35 77 C34.80331899 74.45800137 34.72306036 72.01572615 34.7265625 69.47265625 C34.70627477 67.94335204 34.68542401 66.41405521 34.6640625 64.88476562 C34.64144389 62.47072116 34.6249866 60.05696789 34.61914062 57.64282227 C34.60963141 55.31472988 34.57587669 52.98795439 34.5390625 50.66015625 C34.54410797 49.93820572 34.54915344 49.21625519 34.55435181 48.47242737 C34.49076177 45.24085132 34.43090212 43.46230881 32.18115234 41.04858398 C28.92325486 39.48235724 26.56526977 39.56215985 23 40 C20.24670979 41.79562405 18.47372539 43.05254922 17 46 C16.84391977 48.40560273 16.74195542 50.78702772 16.68359375 53.1953125 C16.66281265 53.90275604 16.64203156 54.61019958 16.62062073 55.33908081 C16.55518922 57.60095425 16.49627026 59.86294462 16.4375 62.125 C16.39430867 63.65756422 16.35069418 65.19011657 16.30664062 66.72265625 C16.19951445 70.48165073 16.0982291 74.24076292 16 78 C12.88370851 79.03876383 10.6405571 79.13361625 7.375 79.125 C6.39273438 79.12757813 5.41046875 79.13015625 4.3984375 79.1328125 C2 79 2 79 1 78 C0.87507611 75.56700213 0.81398493 73.16095077 0.79467773 70.72631836 C0.78477814 69.96539383 0.77487854 69.2044693 0.76467896 68.42048645 C0.73297376 65.8936377 0.7082711 63.36677012 0.68359375 60.83984375 C0.66303199 59.09248859 0.64203574 57.34513849 0.62062073 55.59779358 C0.56531959 50.98973682 0.51594592 46.38163459 0.46777344 41.77349854 C0.41761697 37.07486911 0.36190042 32.37630606 0.30664062 27.67773438 C0.19896076 18.45187956 0.09753777 9.22596722 0 0 Z " fill="#2E8DEE" transform="translate(709,703)"/>
<path d="M0 0 C3.89528326 3.08466262 5.92789535 6.30126753 6.61938477 11.23486328 C6.62216431 13.16048096 6.62216431 13.16048096 6.625 15.125 C6.63442123 15.81729706 6.64384247 16.50959412 6.65354919 17.22286987 C6.68203524 19.41711581 6.68528288 21.61027225 6.68359375 23.8046875 C6.68720733 26.0060833 6.69677203 28.20669608 6.72434998 30.40792847 C6.74876893 32.39959118 6.75107025 34.3914887 6.75219727 36.38330078 C7.1448898 39.89232437 7.86822319 41.07712324 10.12109375 43.6796875 C9.87313008 45.84936959 9.67875768 47.12202357 8.12109375 48.6796875 C6.16686509 48.83135898 4.20599646 48.90148746 2.24609375 48.9296875 C0.64121094 48.96835937 0.64121094 48.96835937 -0.99609375 49.0078125 C-3.87890625 48.6796875 -3.87890625 48.6796875 -5.76171875 47.3515625 C-6.87890625 45.6796875 -6.87890625 45.6796875 -6.87890625 42.6796875 C-7.54277344 43.10121094 -8.20664062 43.52273438 -8.890625 43.95703125 C-10.21513672 44.77880859 -10.21513672 44.77880859 -11.56640625 45.6171875 C-12.43652344 46.16246094 -13.30664062 46.70773437 -14.203125 47.26953125 C-18.95790677 49.77533595 -23.55743499 50.04668552 -28.87890625 49.6796875 C-34.0497063 48.0145146 -36.90788727 46.25048593 -39.87890625 41.6796875 C-41.08534191 38.06038052 -41.20159184 35.48737745 -40.87890625 31.6796875 C-37.61311722 25.51097488 -33.39260377 21.9885774 -26.87890625 19.6796875 C-24.91076534 19.25056391 -22.92981152 18.8771316 -20.94140625 18.5546875 C-19.94238281 18.38710938 -18.94335938 18.21953125 -17.9140625 18.046875 C-14.87011123 17.67862349 -11.94177107 17.61578272 -8.87890625 17.6796875 C-9.14284126 14.24738302 -9.14284126 14.24738302 -9.87890625 10.6796875 C-13.5441378 8.2361998 -16.61860982 7.83261102 -20.87890625 8.6796875 C-23.83941499 10.97168153 -23.83941499 10.97168153 -25.87890625 13.6796875 C-26.87890625 14.6796875 -26.87890625 14.6796875 -30.75390625 14.9296875 C-33.28692156 14.87975351 -34.621986 14.81617638 -36.87890625 13.6171875 C-38.53588718 10.40678695 -38.42884704 8.22375038 -37.87890625 4.6796875 C-28.3424279 -5.30034798 -11.86474339 -6.12244768 0 0 Z " fill="#2885E9" transform="translate(601.87890625,733.3203125)"/>
<path d="M0 0 C4.43400121 2.75653615 7.64867008 6.38351023 9.3125 11.375 C9.44085265 13.69581808 9.51459754 16.01980179 9.55859375 18.34375 C9.59151992 19.73307951 9.62473177 21.12240227 9.65820312 22.51171875 C9.70567479 24.69738319 9.75014365 26.8830179 9.78930664 29.06884766 C9.82901279 31.18159546 9.8805436 33.29380106 9.93359375 35.40625 C9.9586499 36.67017578 9.98370605 37.93410156 10.00952148 39.23632812 C10.07872029 42.53586619 10.07872029 42.53586619 12.3125 45.375 C12.3125 46.695 12.3125 48.015 12.3125 49.375 C9.73241408 50.66504296 7.75508426 50.57910224 4.875 50.625 C3.42287109 50.66367187 3.42287109 50.66367187 1.94140625 50.703125 C-0.6875 50.375 -0.6875 50.375 -2.53515625 49.046875 C-3.6875 47.375 -3.6875 47.375 -3.6875 44.375 C-4.28175781 44.79652344 -4.87601563 45.21804688 -5.48828125 45.65234375 C-13.14725132 50.71464901 -19.48128982 52.21471132 -28.5625 50.75 C-32.17304382 49.16136072 -34.17848553 47.40057627 -36.6875 44.375 C-38.06803273 40.23340181 -38.51743541 36.69205897 -37.6875 32.375 C-35.05947265 27.60500679 -31.57292686 24.35060427 -26.4375 22.5 C-24.8648144 22.08259201 -23.27975967 21.71007996 -21.6875 21.375 C-20.7490625 21.17261719 -19.810625 20.97023438 -18.84375 20.76171875 C-14.39227808 19.88219406 -10.23475275 19.26867934 -5.6875 19.375 C-6.78536425 13.96712615 -6.78536425 13.96712615 -10.6875 10.375 C-14.05998616 9.70741215 -14.05998616 9.70741215 -17.6875 10.375 C-19.28247982 11.70416684 -19.28247982 11.70416684 -20.6875 13.375 C-23.10194147 16.10577203 -23.43963688 16.33653848 -27.3125 16.9375 C-32.51358696 16.07065217 -32.51358696 16.07065217 -34.6875 13.375 C-35.4375 10.0625 -35.4375 10.0625 -34.6875 6.375 C-26.61072166 -2.37815879 -10.85012941 -4.97902688 0 0 Z " fill="#2C89EA" transform="translate(653.6875,731.625)"/>
<path d="M0 0 C4.24678597 2.6460019 8.44794477 6.56533503 10.01171875 11.41015625 C10.92805861 16.52392386 11.34439134 19.95109995 8.5 24.3125 C-0.816718 30.64786824 -13.83501845 28.64167723 -24.625 28.4375 C-24.19152828 29.90848908 -23.74342258 31.37517193 -23.2890625 32.83984375 C-23.0410791 33.65702881 -22.7930957 34.47421387 -22.53759766 35.31616211 C-21.75452599 37.70833463 -21.75452599 37.70833463 -19 39 C-17.88625 39.144375 -16.7725 39.28875 -15.625 39.4375 C-14.61566406 39.57285156 -14.61566406 39.57285156 -13.5859375 39.7109375 C-7.7189486 40.1462971 -3.88716471 38.40487323 1.11328125 35.43359375 C3.375 34.4375 3.375 34.4375 5.5546875 34.70703125 C7.84669747 35.62678632 8.98014318 36.38192153 10.375 38.4375 C10.375 40.875 10.375 40.875 9.375 43.4375 C2.27291474 49.97889432 -3.69401348 50.64209938 -12.9375 50.75 C-13.75412109 50.77900391 -14.57074219 50.80800781 -15.41210938 50.83789062 C-23.43060818 50.92095077 -29.84959731 48.05247484 -35.625 42.4375 C-41.09414536 34.54788828 -41.48930466 26.84316834 -40.625 17.4375 C-38.45835959 9.60588761 -33.58351462 4.4594986 -26.625 0.4375 C-19.07188277 -2.71051249 -7.61992099 -3.44077828 0 0 Z " fill="#FD771D" transform="translate(463.625,730.5625)"/>
<path d="M0 0 C1.60488281 -0.03867187 1.60488281 -0.03867187 3.2421875 -0.078125 C6.125 0.25 6.125 0.25 7.9453125 1.578125 C9.125 3.25 9.125 3.25 10.125 6.25 C10.59550781 5.90066406 11.06601562 5.55132813 11.55078125 5.19140625 C12.17339844 4.73636719 12.79601562 4.28132812 13.4375 3.8125 C14.05238281 3.36003906 14.66726563 2.90757812 15.30078125 2.44140625 C20.52959948 -0.97356069 27.14460933 -0.26219269 33.125 0.25 C38.54761447 1.88331761 41.49321078 5.35575901 44.125 10.25 C44.7040729 13.43747215 44.72978621 16.57083225 44.734375 19.8046875 C44.75091125 20.70623566 44.76744751 21.60778381 44.78448486 22.53665161 C44.83284103 25.39950457 44.85430816 28.2618268 44.875 31.125 C44.90317006 33.07294319 44.93309893 35.02086179 44.96484375 36.96875 C45.03859666 41.72912295 45.08824688 46.48920343 45.125 51.25 C42.83358714 51.30384521 40.54181812 51.34272087 38.25 51.375 C36.97382813 51.39820313 35.69765625 51.42140625 34.3828125 51.4453125 C31.125 51.25 31.125 51.25 29.125 49.25 C28.85375977 46.14892578 28.85375977 46.14892578 28.81640625 42.1953125 C28.79124253 40.76171475 28.76584456 39.32812109 28.74023438 37.89453125 C28.71150872 35.63428846 28.68749266 33.37411695 28.66870117 31.11376953 C28.64701454 28.93223777 28.60757028 26.75155104 28.56640625 24.5703125 C28.55295166 23.26336426 28.53949707 21.95641602 28.52563477 20.60986328 C28.10909738 17.11663505 27.60383546 15.69032194 25.125 13.25 C22.06454827 12.41897846 19.21664895 12.59912654 16.125 13.25 C13.10090636 15.52127334 13.10090636 15.52127334 11.125 18.25 C10.795 18.58 10.465 18.91 10.125 19.25 C10.0366033 21.6256852 10.00969695 23.97208674 10.02734375 26.34765625 C10.02946617 27.41094398 10.02946617 27.41094398 10.03163147 28.49571228 C10.03724557 30.76801712 10.04980037 33.04022475 10.0625 35.3125 C10.06751319 36.84960796 10.07207641 38.38671745 10.07617188 39.92382812 C10.08721958 43.69925642 10.10449359 47.47461171 10.125 51.25 C7.83358714 51.30384521 5.54181812 51.34272087 3.25 51.375 C1.97382813 51.39820313 0.69765625 51.42140625 -0.6171875 51.4453125 C-3.875 51.25 -3.875 51.25 -5.875 49.25 C-6.16020203 47.19395447 -6.16020203 47.19395447 -6.2097168 44.63256836 C-6.23281418 43.67495102 -6.25591156 42.71733368 -6.27970886 41.73069763 C-6.29439713 40.69421585 -6.30908539 39.65773407 -6.32421875 38.58984375 C-6.34595657 37.52963516 -6.3676944 36.46942657 -6.39009094 35.37709045 C-6.43405259 33.13355983 -6.47324213 30.88993144 -6.50805664 28.64624023 C-6.56233327 25.19809211 -6.63248496 21.75054054 -6.70507812 18.30273438 C-6.74573004 16.1276215 -6.7854745 13.95249144 -6.82421875 11.77734375 C-6.84497971 10.73883774 -6.86574066 9.70033173 -6.88713074 8.63035583 C-6.90077164 7.67589066 -6.91441254 6.72142548 -6.9284668 5.73803711 C-6.94241989 4.89357529 -6.95637299 4.04911346 -6.9707489 3.17906189 C-6.76367199 -0.99293555 -3.45702687 0.04974139 0 0 Z " fill="#FD771A" transform="translate(370.875,728.75)"/>
<path d="M0 0 C1.17755859 -0.02126953 1.17755859 -0.02126953 2.37890625 -0.04296875 C4.4375 0.1875 4.4375 0.1875 6.4375 2.1875 C6.58257695 4.93235593 6.62402423 7.57230543 6.5625 10.3125 C6.55347656 11.06660156 6.54445313 11.82070313 6.53515625 12.59765625 C6.5115687 14.46107254 6.47569719 16.32432593 6.4375 18.1875 C10.7275 18.1875 15.0175 18.1875 19.4375 18.1875 C19.6875 25.8125 19.6875 25.8125 17.4375 29.1875 C14.6171875 29.48046875 14.6171875 29.48046875 11.3125 29.375 C10.21679688 29.34792969 9.12109375 29.32085938 7.9921875 29.29296875 C6.72761719 29.24076172 6.72761719 29.24076172 5.4375 29.1875 C5.54717098 33.45887254 5.6778499 37.72934766 5.8125 42 C5.8434375 43.21494141 5.874375 44.42988281 5.90625 45.68164062 C5.94492187 46.84501953 5.98359375 48.00839844 6.0234375 49.20703125 C6.07056885 50.81735229 6.07056885 50.81735229 6.11865234 52.46020508 C6.25342307 55.4035765 6.25342307 55.4035765 8.4375 58.1875 C10.87443311 58.55166047 10.87443311 58.55166047 13.5625 58.375 C14.47257813 58.34792969 15.38265625 58.32085938 16.3203125 58.29296875 C17.01898437 58.25816406 17.71765625 58.22335937 18.4375 58.1875 C20.4609375 61.859375 20.4609375 61.859375 20.25 64.8125 C19.4375 67.1875 19.4375 67.1875 16.4375 69.1875 C8.79600141 70.9645927 2.35872606 71.04741453 -4.5625 67.1875 C-9.13575467 62.37354772 -9.68756972 58.82902265 -9.66015625 52.33203125 C-9.6587413 51.67039474 -9.65732635 51.00875824 -9.65586853 50.32707214 C-9.65027996 48.21800172 -9.63772965 46.10903823 -9.625 44 C-9.61998352 42.56836091 -9.61542087 41.13672015 -9.61132812 39.70507812 C-9.6003143 36.19918412 -9.58305755 32.6933525 -9.5625 29.1875 C-12.2025 29.1875 -14.8425 29.1875 -17.5625 29.1875 C-17.5625 25.8875 -17.5625 22.5875 -17.5625 19.1875 C-14.5925 19.1875 -11.6225 19.1875 -8.5625 19.1875 C-8.57410156 18.47464844 -8.58570313 17.76179687 -8.59765625 17.02734375 C-8.64856026 11.62424634 -8.50858271 6.50921525 -7.5625 1.1875 C-4.76092552 0.25364184 -2.90802197 0.02395405 0 0 Z " fill="#2F8EEE" transform="translate(683.5625,712.8125)"/>
<path d="M0 0 C3.06169525 3.07785195 3.35991227 5.67772932 3.36669922 9.93896484 C3.33987061 11.05198975 3.33987061 11.05198975 3.3125 12.1875 C3.29340576 13.33532959 3.29340576 13.33532959 3.27392578 14.50634766 C2.93258707 27.76213765 -1.53269136 38.17511736 -10.75 47.93359375 C-22.7385439 58.94390577 -36.48574767 61.93991177 -52.3125 61.3828125 C-58.08091713 61.01827422 -62.88327794 59.70142727 -68 57 C-69.2684375 56.36384766 -69.2684375 56.36384766 -70.5625 55.71484375 C-77.07745098 52.1494971 -81.99539595 47.43978701 -87 42 C-86.67 41.01 -86.34 40.02 -86 39 C-84.93265625 39.43119141 -84.93265625 39.43119141 -83.84375 39.87109375 C-81.07424933 40.97052465 -78.29512232 42.03003207 -75.5 43.0625 C-74.5821875 43.40410156 -73.664375 43.74570312 -72.71875 44.09765625 C-58.87366675 48.69279164 -42.89111208 46.77119383 -29.875 40.75 C-25.43926573 38.43293114 -21.64219764 35.56284052 -17.8125 32.35546875 C-16 31 -16 31 -14 31 C-14 30.34 -14 29.68 -14 29 C-13.29875 28.38125 -12.5975 27.7625 -11.875 27.125 C-4.64869906 20.12452096 -1.92967921 9.546834 0 0 Z " fill="#2A81E8" transform="translate(449,292)"/>
<path d="M0 0 C4.12923784 3.26065025 7.92183057 7.11018959 10 12 C10.53348798 16.97922113 10.16955197 20.06538376 7 24 C1.32669693 28.11788078 -4.2430121 27.70871864 -11 27 C-19.11072281 24.86760339 -27.04069118 19.32020014 -32.5625 13.125 C-34.43202716 9.06081051 -35.32900677 5.48572643 -35 1 C-33.30254589 -2.73439904 -32.04911044 -4.43706269 -28.4375 -6.375 C-17.22026361 -8.41449753 -9.47731068 -5.96547286 0 0 Z " fill="#FDA74C" transform="translate(651,271)"/>
<path d="M0 0 C3.03038121 2.04086898 4.62255027 3.47702581 5.7890625 6.9765625 C6.4309561 12.43265806 5.42922045 15.65043811 2.40234375 20.05859375 C-2.7402624 26.17244271 -10.33030539 30.6750606 -18.0234375 32.7265625 C-19.0753125 32.8090625 -20.1271875 32.8915625 -21.2109375 32.9765625 C-22.08234375 33.05132812 -22.95375 33.12609375 -23.8515625 33.203125 C-31.40773706 33.58699483 -31.40773706 33.58699483 -35.3359375 30.6015625 C-38.30757338 26.44127227 -38.71102057 24.14408751 -38.2109375 18.9765625 C-35.12947867 11.44577776 -28.67672585 5.3283682 -21.5703125 1.5859375 C-14.85016493 -1.14052237 -6.88536507 -3.18721846 0 0 Z " fill="#95CEF7" transform="translate(402.2109375,265.0234375)"/>
<path d="M0 0 C1.2634025 3.79020749 0.47611172 5.10859029 -0.875 8.8125 C-8.33325857 29.38790563 -5.28977516 54.99593933 -5.52606201 76.70721436 C-5.57750399 81.40977893 -5.63242715 86.11227841 -5.69187927 90.81474876 C-5.71792213 92.98189065 -5.73903376 95.1490414 -5.7598877 97.3162384 C-5.85475745 105.57888844 -6.24707865 113.76995577 -7 122 C-6.01 122.33 -5.02 122.66 -4 123 C-5.32 123 -6.64 123 -8 123 C-9.75465104 114.31385515 -11.2329962 105.64203393 -12.37890625 96.85546875 C-13.80839064 86.14811704 -15.44682047 75.48106211 -17.16210938 64.81616211 C-17.63427339 61.8798299 -18.10255585 58.94289662 -18.5703125 56.00585938 C-18.87217726 54.11715255 -19.17425226 52.22847932 -19.4765625 50.33984375 C-19.61510651 49.47221909 -19.75365051 48.60459442 -19.89639282 47.7106781 C-20.02677948 46.90115189 -20.15716614 46.09162567 -20.29150391 45.25756836 C-20.40979553 44.5099826 -20.52808716 43.76239685 -20.64996338 42.99215698 C-20.93897334 41.34731988 -21.33017943 39.72079733 -21.74755859 38.10375977 C-21.83086426 37.40951904 -21.91416992 36.71527832 -22 36 C-20.66651839 34.35879187 -19.31217721 32.73117761 -17.87109375 31.18359375 C-10.1289412 22.14838858 -5.13763376 10.64419335 0 0 Z " fill="#155EE4" transform="translate(475,537)"/>
<path d="M0 0 C2.85589712 3.46036614 4.69978038 7.29406267 6.625 11.3125 C9.45660274 17.09046411 12.45580959 22.72188948 15.75 28.25 C16.11432129 28.86915283 16.47864258 29.48830566 16.85400391 30.1262207 C18.47881894 32.81084308 19.92962031 34.93967455 22.32421875 36.9921875 C24 39 24 39 23.91015625 42.0546875 C23.63042969 43.31539062 23.35070312 44.57609375 23.0625 45.875 C22.74948537 47.38998396 22.43987366 48.90567316 22.1328125 50.421875 C21.95266602 51.28619141 21.77251953 52.15050781 21.58691406 53.04101562 C20.39626161 59.04380585 19.43644574 65.08794189 18.4375 71.125 C18.22810791 72.36233887 18.01871582 73.59967773 17.80297852 74.87451172 C16.53726911 82.42686053 15.43019791 89.98228248 14.45556641 97.57641602 C12.54941211 111.90117578 12.54941211 111.90117578 11 115 C10.34 115 9.68 115 9 115 C8.33895035 108.76724612 7.94776406 102.60912637 8.01953125 96.33984375 C8.07876334 85.0123262 7.68454623 73.69373307 7.31030273 62.3737793 C7.22849726 59.83488227 7.15199137 57.2958089 7.08081055 54.7565918 C6.58932011 37.25388282 5.92010968 20.63268909 0 4 C0 2.68 0 1.36 0 0 Z " fill="#FA5009" transform="translate(547,535)"/>
<path d="M0 0 C1.06605469 0.00257813 2.13210938 0.00515625 3.23046875 0.0078125 C4.81794922 0.00394531 4.81794922 0.00394531 6.4375 0 C8.97565021 0.11310237 10.99062789 0.47476101 13.41796875 1.1328125 C13.44323713 8.09284697 13.46080097 15.0528697 13.47290039 22.01293945 C13.47794216 24.38273562 13.4847754 26.75252865 13.4934082 29.12231445 C13.50548065 32.52035289 13.51119846 35.91835035 13.515625 39.31640625 C13.52078629 40.38306015 13.52594757 41.44971405 13.53126526 42.5486908 C13.53137856 44.02010277 13.53137856 44.02010277 13.53149414 45.52124023 C13.53371475 46.38949936 13.53593536 47.25775848 13.53822327 48.15232849 C13.41796875 50.1328125 13.41796875 50.1328125 12.41796875 51.1328125 C10.27488979 51.25818991 8.12717989 51.30855614 5.98046875 51.3203125 C4.80613281 51.33449219 3.63179687 51.34867188 2.421875 51.36328125 C-0.58203125 51.1328125 -0.58203125 51.1328125 -2.58203125 49.1328125 C-2.86723328 47.07676697 -2.86723328 47.07676697 -2.91674805 44.51538086 C-2.93984543 43.55776352 -2.96294281 42.60014618 -2.98674011 41.61351013 C-3.00142838 40.57702835 -3.01611664 39.54054657 -3.03125 38.47265625 C-3.05298782 37.41244766 -3.07472565 36.35223907 -3.09712219 35.25990295 C-3.14108384 33.01637233 -3.18027338 30.77274394 -3.21508789 28.52905273 C-3.26936452 25.08090461 -3.33951621 21.63335304 -3.41210938 18.18554688 C-3.45276129 16.010434 -3.49250575 13.83530394 -3.53125 11.66015625 C-3.55201096 10.62165024 -3.57277191 9.58314423 -3.59416199 8.51316833 C-3.60780289 7.55870316 -3.62144379 6.60423798 -3.63549805 5.62084961 C-3.64945114 4.77638779 -3.66340424 3.93192596 -3.67778015 3.06187439 C-3.5282818 0.04991735 -3.02487336 0.15559107 0 0 Z " fill="#2584E9" transform="translate(773.58203125,730.8671875)"/>
<path d="M0 0 C2.64912089 0.09615684 4.42848057 0.4553875 6.37939453 2.31445312 C7.83733488 4.08573412 9.21015847 5.89686071 10.5625 7.75 C11.50127453 8.99481245 12.44007615 10.23960446 13.37890625 11.484375 C13.99100952 12.31533691 13.99100952 12.31533691 14.61547852 13.16308594 C16.04935312 15.13598872 16.04935312 15.13598872 18.1394043 17.26538086 C20.55079526 20.80953388 20.46072255 23.01110515 20.390625 27.26953125 C20.38496521 27.95053391 20.37930542 28.63153656 20.37347412 29.33317566 C20.35120481 31.49368645 20.30103318 33.65249646 20.25 35.8125 C20.22992247 37.28317905 20.21167389 38.75388429 20.1953125 40.22460938 C20.15137326 43.8169525 20.08241456 47.40831006 20 51 C16.89150331 48.03119339 15.3884019 46.00211286 14.125 41.875 C11.33666635 33.74868908 7.12982668 24.03303167 -1 20 C-6.02581893 19.20437663 -11.08909482 19.69042528 -16 21 C-15.41259239 17.57816237 -14.2720745 15.87814657 -11.875 13.3984375 C-11.25109375 12.74359375 -10.6271875 12.08875 -9.984375 11.4140625 C-9.32953125 10.74117188 -8.6746875 10.06828125 -8 9.375 C-6.70641621 8.03048771 -5.41465778 6.68421608 -4.125 5.3359375 C-3.55007813 4.74345215 -2.97515625 4.1509668 -2.3828125 3.54052734 C-0.90535362 2.03125825 -0.90535362 2.03125825 0 0 Z " fill="#1462E1" transform="translate(492,321)"/>
<path d="M0 0 C1.7174655 4.08283715 0.04196869 7.3043788 -1.4375 11.1875 C-3.51815336 17.0315634 -4.81466239 21.78819925 -4 28 C-2.64114884 30.40083438 -2.64114884 30.40083438 -1 32 C-1 32.66 -1 33.32 -1 34 C0.6396875 33.7525 0.6396875 33.7525 2.3125 33.5 C6 33 6 33 9 33 C7.68443027 38.2758415 5.82546309 42.66675765 3.125 47.375 C2.78597656 48.00277344 2.44695313 48.63054687 2.09765625 49.27734375 C-0.49265776 53.83747831 -0.49265776 53.83747831 -3.12939453 54.68212891 C-4.05534424 54.8394751 -4.05534424 54.8394751 -5 55 C-7.1345591 52.2781904 -9.25588094 49.54634241 -11.375 46.8125 C-11.97828125 46.04357422 -12.5815625 45.27464844 -13.203125 44.48242188 C-13.78320312 43.73154297 -14.36328125 42.98066406 -14.9609375 42.20703125 C-15.49509277 41.5210083 -16.02924805 40.83498535 -16.57958984 40.12817383 C-18.17069873 37.7442453 -19.26600255 35.78040697 -20 33 C-19.20483398 30.64746094 -19.20483398 30.64746094 -17.74609375 28.234375 C-17.22080078 27.34363281 -16.69550781 26.45289063 -16.15429688 25.53515625 C-15.58775391 24.61605469 -15.02121094 23.69695312 -14.4375 22.75 C-13.35246332 20.93253116 -12.26782428 19.11482487 -11.18359375 17.296875 C-10.6510498 16.41708984 -10.11850586 15.53730469 -9.56982422 14.63085938 C-7.28686061 10.8048538 -5.13271373 6.91127573 -3 3 C-2.34 3 -1.68 3 -1 3 C-0.67 2.01 -0.34 1.02 0 0 Z " fill="#F94E0B" transform="translate(533,265)"/>
<path d="M0 0 C3.08099629 1.02699876 4.42942828 1.96764262 6.00390625 4.81640625 C8.40430298 10.83354423 8.61754145 16.73323762 7 23 C5.25685805 26.10364299 3.23731711 28.38134144 0 30 C-1.80948495 30.12176503 -3.62396271 30.17545792 -5.4375 30.1875 C-6.40558594 30.20167969 -7.37367188 30.21585938 -8.37109375 30.23046875 C-11 30 -11 30 -14 28 C-14.71405778 24.65132904 -14.55557141 21.22829404 -14.5625 17.8125 C-14.59923828 16.87857422 -14.63597656 15.94464844 -14.67382812 14.98242188 C-14.71176128 8.99319844 -13.7846729 5.63360957 -9.68945312 1.2121582 C-6.40607099 -1.14362103 -3.92204126 -0.62254623 0 0 Z " fill="#F1F0F0" transform="translate(334,740)"/>
<path d="M0 0 C1.85625 0.0309375 1.85625 0.0309375 3.75 0.0625 C2.96625 0.825625 2.1825 1.58875 1.375 2.375 C-1.90738515 5.73553718 -3.1669952 7.2047837 -3.625 11.9375 C-3.53451479 15.01965249 -3.22841278 16.0998625 -1.625 18.875 C0.98742659 21.28118239 3.50026281 22.6592044 6.75 24.0625 C4.6391825 25.12763602 2.52246904 26.16950713 0.3828125 27.17578125 C-4.78960691 29.64919676 -9.03024784 32.17588617 -13.25 36.0625 C-13.91 35.7325 -14.57 35.4025 -15.25 35.0625 C-16.7760693 29.11082974 -17.20430069 21.92540206 -15.25 16.0625 C-15.21045766 13.72950175 -15.20598268 11.39541811 -15.25 9.0625 C-18.80780196 9.67240891 -21.9328589 10.6408681 -25.25 12.0625 C-19.33520852 4.8802532 -9.36358417 -0.15605974 0 0 Z " fill="#419CF0" transform="translate(502.25,139.9375)"/>
<path d="M0 0 C2.05352935 3.08029403 2.77957731 5.35774769 3.7265625 8.91015625 C4.190625 10.64168945 4.190625 10.64168945 4.6640625 12.40820312 C4.98117187 13.61412109 5.29828125 14.82003906 5.625 16.0625 C6.11226563 17.87717773 6.11226563 17.87717773 6.609375 19.72851562 C9 28.71344866 9 28.71344866 9 31 C2.07 31 -4.86 31 -12 31 C-8.625 20.875 -8.625 20.875 -6.73828125 16.30859375 C-6.34189453 15.34501953 -5.94550781 14.38144531 -5.53710938 13.38867188 C-5.13298828 12.41478516 -4.72886719 11.44089844 -4.3125 10.4375 C-3.89677734 9.42880859 -3.48105469 8.42011719 -3.05273438 7.38085938 C-2.03784021 4.9194494 -1.02021747 2.45920717 0 0 Z " fill="#F0ECE8" transform="translate(266,717)"/>
<path d="M0 0 C5.53846154 3.07692308 5.53846154 3.07692308 7 6 C7.375 8.8125 7.375 8.8125 7 12 C4.827365 14.57285724 3.02006162 16.48996919 0 18 C-4.60172042 18.12437082 -8.00622104 17.84834789 -11.5625 14.8125 C-13.27504881 11.46186103 -13.61875967 9.71255801 -13 6 C-9.24005437 0.36008156 -6.73597366 -0.56133114 0 0 Z " fill="#3997F2" transform="translate(782,704)"/>
<path d="M0 0 C3.42739125 0.0441295 4.85062796 0.10396017 7.8125 1.9375 C9.53279892 4.90892541 9.49469041 6.93340549 9.1875 10.3125 C5.09746141 11.46232602 1.15572949 11.42344256 -3.0625 11.375 C-3.80757813 11.37048828 -4.55265625 11.36597656 -5.3203125 11.36132812 C-7.1510764 11.34959246 -8.98179873 11.3316585 -10.8125 11.3125 C-10.96484375 8.984375 -10.96484375 8.984375 -10.8125 6.3125 C-8.375 3.5625 -8.375 3.5625 -5.8125 1.3125 C-4.16284831 -0.33715169 -2.2648645 0.06300502 0 0 Z " fill="#F2EEEC" transform="translate(449.8125,738.6875)"/>
<path d="M0 0 C0.31658501 4.03645882 0.4210379 6.32333195 -1.75 9.8125 C-5.24855491 13.21387283 -5.24855491 13.21387283 -8 14 C-14.44444444 13.55555556 -14.44444444 13.55555556 -17 11 C-17.48125311 7.95206366 -17.28169095 6.46948492 -15.6875 3.8125 C-11.18745447 0.77758557 -5.40292028 0 0 0 Z " fill="#E9EEF5" transform="translate(648,759)"/>
<path d="M0 0 C0.4786191 3.41870788 0.79541019 5.93714754 -1.34765625 8.80078125 C-4.29511645 11.51503581 -6.23765868 12.88271672 -10.25 13.5 C-13 13 -13 13 -16 11 C-16.5625 7.625 -16.5625 7.625 -16 4 C-11.29258086 -0.83129859 -6.30102716 -0.44829442 0 0 Z " fill="#EAEFF6" transform="translate(593,760)"/>
<path d="M0 0 C0.66 0 1.32 0 2 0 C1.67 3.63 1.34 7.26 1 11 C-10.55 11 -22.1 11 -34 11 C-34 10.34 -34 9.68 -34 9 C-33.0713916 8.97494385 -32.1427832 8.9498877 -31.18603516 8.92407227 C-27.74564196 8.82902068 -24.30542287 8.72978293 -20.86523438 8.62768555 C-19.37537359 8.58433411 -17.88546305 8.54265916 -16.39550781 8.50268555 C-14.25570673 8.44498785 -12.11615615 8.38129245 -9.9765625 8.31640625 C-8.68830566 8.27974854 -7.40004883 8.24309082 -6.07275391 8.20532227 C-3.0872318 8.20469325 -3.0872318 8.20469325 -1 7 C-0.59270772 4.67843403 -0.25561323 2.3431213 0 0 Z " fill="#F97523" transform="translate(556,650)"/>
<path d="M0 0 C0.33 0 0.66 0 1 0 C1.20638953 28.35792096 1.20638953 28.35792096 0 39 C0.99 39.33 1.98 39.66 3 40 C1.68 40 0.36 40 -1 40 C-3.13424042 32.4706537 -2.95255183 26.05922247 -2.1875 18.3125 C-2.09146484 17.21099609 -1.99542969 16.10949219 -1.89648438 14.97460938 C-1.44356998 9.93783656 -0.87196257 4.98349871 0 0 Z " fill="#1C6DE5" transform="translate(468,620)"/>
<path d="M0 0 C1.25361328 0.09345703 2.50722656 0.18691406 3.79882812 0.28320312 C5.10916016 0.38697266 6.41949219 0.49074219 7.76953125 0.59765625 C9.10477566 0.69912253 10.44006187 0.80004043 11.77539062 0.90039062 C15.04472268 1.14824612 18.31352097 1.40172473 21.58203125 1.66015625 C21.58203125 1.99015625 21.58203125 2.32015625 21.58203125 2.66015625 C16.96203125 2.99015625 12.34203125 3.32015625 7.58203125 3.66015625 C7.91203125 4.32015625 8.24203125 4.98015625 8.58203125 5.66015625 C1.83593507 4.99660581 -4.76245409 3.94149832 -11.41796875 2.66015625 C-7.85576142 -0.90205108 -4.75547884 -0.36580606 0 0 Z " fill="#257CE5" transform="translate(371.41796875,583.33984375)"/>
<path d="M0 0 C1.65322266 0.01740234 1.65322266 0.01740234 3.33984375 0.03515625 C4.99693359 0.04869141 4.99693359 0.04869141 6.6875 0.0625 C7.54214844 0.07410156 8.39679687 0.08570313 9.27734375 0.09765625 C9.27734375 0.42765625 9.27734375 0.75765625 9.27734375 1.09765625 C5.97734375 1.42765625 2.67734375 1.75765625 -0.72265625 2.09765625 C-1.05265625 17.60765625 -1.38265625 33.11765625 -1.72265625 49.09765625 C-2.05265625 49.09765625 -2.38265625 49.09765625 -2.72265625 49.09765625 C-2.89048167 42.28018555 -3.05044523 35.46256354 -3.20483398 28.64477539 C-3.25834188 26.32344341 -3.3136777 24.00215283 -3.37084961 21.6809082 C-3.45251607 18.35246718 -3.52769744 15.02393462 -3.6015625 11.6953125 C-3.62859756 10.65053238 -3.65563263 9.60575226 -3.68348694 8.52931213 C-3.70358322 7.56839157 -3.7236795 6.60747101 -3.74438477 5.61743164 C-3.76437027 4.76693741 -3.78435577 3.91644318 -3.8049469 3.04017639 C-3.67356326 -0.06121322 -3.12288444 0.11201164 0 0 Z " fill="#529AE7" transform="translate(773.72265625,730.90234375)"/>
<path d="M0 0 C1.67542976 0.28604898 3.34385343 0.61781233 5 1 C5 1.99 5 2.98 5 4 C-1.27 4 -7.54 4 -14 4 C-14.33 3.34 -14.66 2.68 -15 2 C-14.00097656 1.93941406 -13.00195312 1.87882812 -11.97265625 1.81640625 C-10.68230469 1.73261719 -9.39195312 1.64882813 -8.0625 1.5625 C-6.77472656 1.48128906 -5.48695313 1.40007812 -4.16015625 1.31640625 C-1.13976043 1.35080812 -1.13976043 1.35080812 0 0 Z " fill="#4691E5" transform="translate(279,457)"/>
<path d="M0 0 C0.66 0.66 1.32 1.32 2 2 C-0.03959477 2.50838564 -2.08179138 3.00633886 -4.125 3.5 C-5.26195312 3.7784375 -6.39890625 4.056875 -7.5703125 4.34375 C-10.81466698 4.96453765 -13.70814457 5.12006768 -17 5 C-16.01 4.67 -15.02 4.34 -14 4 C-13.67 3.01 -13.34 2.02 -13 1 C-8.57117061 -0.10720735 -4.53942698 -0.22325051 0 0 Z " fill="#FB6E19" transform="translate(662,584)"/>
<path d="M0 0 C-3.29330822 1.09776941 -5.431228 0.93893512 -8.875 0.75 C-13.08814443 0.61478799 -13.08814443 0.61478799 -16.8984375 2.109375 C-18.4191355 3.5999472 -18.4191355 3.5999472 -20 6 C-18.66868381 0.43267776 -18.66868381 0.43267776 -15.875 -1.375 C-10.20465205 -2.60768434 -5.28536808 -2.64268404 0 0 Z " fill="#FBAA3C" transform="translate(278,701)"/>
<path d="M0 0 C0.33 0.99 0.66 1.98 1 3 C9.91 3 18.82 3 28 3 C27.67 3.66 27.34 4.32 27 5 C26.2886792 4.98428955 25.5773584 4.9685791 24.84448242 4.95239258 C21.62556896 4.89008085 18.40678232 4.85102133 15.1875 4.8125 C14.06794922 4.78736328 12.94839844 4.76222656 11.79492188 4.73632812 C10.18520508 4.72182617 10.18520508 4.72182617 8.54296875 4.70703125 C7.55321045 4.6913208 6.56345215 4.67561035 5.54370117 4.65942383 C2.6300787 5.04952877 1.77502198 5.72008288 0 8 C0 5.36 0 2.72 0 0 Z " fill="#E2E2E6" transform="translate(557,654)"/>
<path d="M0 0 C0.99 0 1.98 0 3 0 C2.34 3.96 1.68 7.92 1 12 C0.34 11.34 -0.32 10.68 -1 10 C-1.33 10.66 -1.66 11.32 -2 12 C-2.66 12 -3.32 12 -4 12 C-2.66666667 8 -1.33333333 4 0 0 Z " fill="#F66421" transform="translate(534,256)"/>
<path d="M0 0 C0.8353125 0.39832031 0.8353125 0.39832031 1.6875 0.8046875 C6.74975396 3.14769018 11.55039954 4.81099626 17 6 C17 6.33 17 6.66 17 7 C9.87391001 6.70245971 4.3327492 5.28874656 -2 2 C-1.34 1.34 -0.68 0.68 0 0 Z " fill="#FD7B16" transform="translate(604,330)"/>
<path d="M0 0 C1.65322266 0.01740234 1.65322266 0.01740234 3.33984375 0.03515625 C4.99693359 0.04869141 4.99693359 0.04869141 6.6875 0.0625 C7.54214844 0.07410156 8.39679687 0.08570313 9.27734375 0.09765625 C9.27734375 0.42765625 9.27734375 0.75765625 9.27734375 1.09765625 C5.97734375 1.42765625 2.67734375 1.75765625 -0.72265625 2.09765625 C-1.05265625 6.71765625 -1.38265625 11.33765625 -1.72265625 16.09765625 C-2.05265625 16.09765625 -2.38265625 16.09765625 -2.72265625 16.09765625 C-2.91654721 13.61883495 -3.10305748 11.13984694 -3.28515625 8.66015625 C-3.34123047 7.95310547 -3.39730469 7.24605469 -3.45507812 6.51757812 C-3.58456618 4.71337788 -3.65787233 2.90533673 -3.72265625 1.09765625 C-2.72265625 0.09765625 -2.72265625 0.09765625 0 0 Z " fill="#58A9F1" transform="translate(773.72265625,730.90234375)"/>
<path d="M0 0 C2.08301383 2.49961659 3.74764619 5.15674019 5.3125 8 C5.86357422 8.99 5.86357422 8.99 6.42578125 10 C7 12 7 12 6.10546875 14.25 C5.74066406 14.8275 5.37585938 15.405 5 16 C3.26453924 13.39680887 2.34824767 11.47732763 1.375 8.5625 C1.11460937 7.80066406 0.85421875 7.03882813 0.5859375 6.25390625 C0 4 0 4 0 0 Z " fill="#FA5E0E" transform="translate(547,535)"/>
<path d="M0 0 C0.66 0.66 1.32 1.32 2 2 C-3.81475715 5.27591952 -8.24520726 7.7342166 -15 7 C-12.80541184 4.80541184 -11.54316278 4.39193015 -8.625 3.5 C-5.57948703 2.56291909 -2.81820777 1.49274932 0 0 Z " fill="#3C9EF1" transform="translate(420,330)"/>
<path d="M0 0 C0 0.33 0 0.66 0 1 C-4.62 1 -9.24 1 -14 1 C-14 0.34 -14 -0.32 -14 -1 C-9.04653013 -2.59789351 -4.86717585 -1.28306814 0 0 Z " fill="#FA7213" transform="translate(752,459)"/>
<path d="M0 0 C0.99 0 1.98 0 3 0 C3 0.99 3 1.98 3 3 C2.01 3.33 1.02 3.66 0 4 C-1.38576923 5.62332967 -2.72641268 7.28724465 -4 9 C-4.66 8.67 -5.32 8.34 -6 8 C-5.07456291 6.65826597 -4.13422595 5.32679841 -3.1875 4 C-2.66542969 3.2575 -2.14335938 2.515 -1.60546875 1.75 C-0.81076172 0.88375 -0.81076172 0.88375 0 0 Z " fill="#EC7727" transform="translate(528,320)"/>
<path d="M0 0 C1.5625 1.75 1.5625 1.75 3 4 C2.6875 6.25 2.6875 6.25 2 8 C1.01 8 0.02 8 -1 8 C-0.67 5.36 -0.34 2.72 0 0 Z " fill="#3C99F2" transform="translate(449,292)"/>
<path d="M0 0 C2.64 0 5.28 0 8 0 C6.35 1.65 4.7 3.3 3 5 C2.34 4.67 1.68 4.34 1 4 C0.375 1.9375 0.375 1.9375 0 0 Z " fill="#4793E3" transform="translate(498,140)"/>
<path d="M0 0 C2.0625 0.4375 2.0625 0.4375 4 1 C0.75490696 3.03977277 -2.40608886 4.66511872 -6 6 C-4 4 -2 2 0 0 Z " fill="#50A6F1" transform="translate(483,146)"/>
<path d="M0 0 C0.99 0.33 1.98 0.66 3 1 C2.34 1.66 1.68 2.32 1 3 C0.3574765 5.06874034 0.3574765 5.06874034 0 7 C-0.66 7 -1.32 7 -2 7 C-2.125 4.625 -2.125 4.625 -2 2 C-1.34 1.34 -0.68 0.68 0 0 Z " fill="#DAE8F6" transform="translate(633,763)"/>
</svg>
